# xmcd CD database file
#
# Track frame offsets:
#	150
#	22185
#	37030
#	59752
#	77740
#	90075
#	106322
#	124885
#	150115
#	173185
#
# Disc length: 2619 seconds
#
# Revision: 0
# Processed by: cddbd v1.5.1PL2 Copyright (c) Steve Scherf et al.
# Submitted via: cdripper 1,0,33,916
#
DISCID=760a390a
DTITLE=3d and beyond - Roosevelt Jazz CD2
DYEAR=1900
DGENRE=Jazz
TTITLE0=Sugar
TTITLE1=Waitin' til You Come Home Blues
TTITLE2=Stolen Moments (Vocal)
TTITLE3=Glocca Mora (from Finian's Rainbow)
TTITLE4=Come on Down
TTITLE5=You'd be So Nice
TTITLE6=It's Oh, So Nice
TTITLE7=Stolen Moments (Instrumental)
TTITLE8=Angel City
TTITLE9=Just a Minor Thing
EXTD=
EXTT0=
EXTT1=
EXTT2=
EXTT3=
EXTT4=
EXTT5=
EXTT6=
EXTT7=
EXTT8=
EXTT9=
PLAYORDER=
